<?xml version="1.0" encoding="UTF-8"?>
<svg version="1.1" xmlns="http://www.w3.org/2000/svg" width="394" height="80">
<path d="M0 0 C18 0 18 0 22.8125 4.5 C23.83829589 6.06378669 24.861794 7.62973733 25.83935547 9.22412109 C28.06876382 12.63529408 30.76833553 15.68683775 33.375 18.8125 C38.02429793 24.51179197 42.59094943 30.27199783 47.12109375 36.06616211 C50.53756173 40.42950469 54.02328907 44.73102725 57.54296875 49.01171875 C60.60003632 52.72977391 63.6462856 56.45647229 66.6875 60.1875 C67.2222998 60.84089355 67.75709961 61.49428711 68.30810547 62.16748047 C72.00055876 66.70052937 75.48565102 71.31420136 79 76 C79.33 50.92 79.66 25.84 80 0 C102.77 0 125.54 0 149 0 C149 4.29 149 8.58 149 13 C130.85 13 112.7 13 94 13 C94 19.6 94 26.2 94 33 C108.85 33 123.7 33 139 33 C139 37.29 139 41.58 139 46 C124.15 46 109.3 46 94 46 C94 52.6 94 59.2 94 66 C112.15 66 130.3 66 149 66 C149 70.62 149 75.24 149 80 C138.07327204 80.23221357 127.14713559 80.40963906 116.21843815 80.51812172 C111.14302681 80.57020309 106.06930943 80.64077858 100.99487305 80.75439453 C96.09286943 80.86345653 91.19248939 80.92292422 86.28936577 80.94877243 C84.42372521 80.96717911 82.55816865 81.0031269 80.69322395 81.05730057 C66.09497766 81.4642959 66.09497766 81.4642959 60.89456177 77.82943726 C58.61549909 75.32728152 56.79238081 72.86335021 55 70 C54.0714232 68.82979185 53.13040596 67.6692387 52.171875 66.5234375 C51.37265625 65.48445313 50.5734375 64.44546875 49.75 63.375 C45.73419012 58.19293919 41.64813889 53.07675356 37.5 48 C32.83084159 42.28062733 28.22469746 36.51760687 23.68945312 30.69140625 C21.61386916 28.02973695 19.51285066 25.39608537 17.34765625 22.80712891 C16.57292969 21.88077637 15.79820313 20.95442383 15 20 C14.9845388 21.10540382 14.9845388 21.10540382 14.96876526 22.23313904 C14.87095357 29.16421076 14.76846284 36.09519902 14.66066074 43.02612209 C14.60539973 46.58972968 14.55197482 50.15334543 14.50268555 53.71704102 C14.44599468 57.81015245 14.38142682 61.9031061 14.31640625 65.99609375 C14.29133751 67.92418129 14.29133751 67.92418129 14.26576233 69.89122009 C14.24581711 71.07236893 14.22587189 72.25351776 14.20532227 73.47045898 C14.18977798 74.51636703 14.1742337 75.56227509 14.15821838 76.63987732 C14 79 14 79 13 80 C8.71 80 4.42 80 0 80 C0 53.6 0 27.2 0 0 Z " fill="#FFFFFF" transform="translate(0,0)"/>
<path d="M0 0 C15.72786037 -1.90690121 15.72786037 -1.90690121 20.80224609 1.05029297 C24.03614709 3.92314246 26.3714673 7.44613076 28.70556641 11.06103516 C30.98528632 14.47588531 33.61564589 17.61584052 36.1875 20.8125 C37.79875306 22.86959044 39.3992003 24.93475164 41 27 C44.14384951 23.93203652 47.0433123 20.8335454 49.75 17.375 C52.78100945 13.53572137 55.84048374 9.72383625 58.9375 5.9375 C59.68902344 5.01839844 60.44054687 4.09929688 61.21484375 3.15234375 C62.10997497 2.07309363 63.00852617 0.99147383 64 0 C65.34267413 -0.08631874 66.68974322 -0.10706473 68.03515625 -0.09765625 C68.84404297 -0.09443359 69.65292969 -0.09121094 70.48632812 -0.08789062 C71.33646484 -0.07951172 72.18660156 -0.07113281 73.0625 -0.0625 C73.91650391 -0.05798828 74.77050781 -0.05347656 75.65039062 -0.04882812 C77.76695663 -0.03700373 79.88348685 -0.01906769 82 0 C79.47343519 4.57062592 76.31621563 8.43246482 73 12.4375 C71.83501436 13.85731597 70.67096969 15.27790448 69.5078125 16.69921875 C68.92290039 17.41384277 68.33798828 18.1284668 67.73535156 18.86474609 C65.07986917 22.13216998 62.47237832 25.43630236 59.875 28.75 C59.42640625 29.32161865 58.9778125 29.8932373 58.515625 30.48217773 C56.31182943 33.29818568 54.13211937 36.12930333 52 39 C53.29108381 41.76655418 54.7064804 44.04962067 56.65234375 46.3984375 C57.17642822 47.03612061 57.7005127 47.67380371 58.24047852 48.33081055 C58.80049561 49.00539307 59.3605127 49.67997559 59.9375 50.375 C61.11293039 51.80520834 62.28739158 53.23621372 63.4609375 54.66796875 C64.05229492 55.38903809 64.64365234 56.11010742 65.25292969 56.85302734 C68.78300946 61.19113824 72.21687799 65.60469505 75.66015625 70.01171875 C77.18086765 71.95386269 78.72920397 73.87479799 80.30859375 75.76953125 C82 78 82 78 82 80 C67.55816911 82.50521556 67.55816911 82.50521556 61.95068359 78.55712891 C57.90948796 74.57271822 54.7130643 69.94567206 51.54345703 65.25683594 C49.34737638 62.04573668 46.93245976 59.03310564 44.5 56 C43.61383347 54.86516848 42.72842889 53.72974161 41.84375 52.59375 C38.63154107 48.50548408 35.31631085 44.50392606 32 40.5 C27.31506804 34.84367826 22.71441103 29.13628443 18.20776367 23.3371582 C13.73022617 17.60018398 9.08370719 12.00437789 4.41796875 6.41992188 C3.55558594 5.38254883 3.55558594 5.38254883 2.67578125 4.32421875 C2.15927002 3.70635498 1.64275879 3.08849121 1.1105957 2.4519043 C0 1 0 1 0 0 Z " fill="#FFFFFF" transform="translate(165,0)"/>
<path d="M0 0 C22.77 0 45.54 0 69 0 C69 4.29 69 8.58 69 13 C60.09 13 51.18 13 42 13 C42.00523682 14.99409912 42.01047363 16.98819824 42.01586914 19.04272461 C42.03196623 25.61654057 42.04347203 32.19035188 42.05181217 38.76418209 C42.05704036 42.751572 42.06413684 46.73894067 42.07543945 50.72631836 C42.08627061 54.57125114 42.09227732 58.41616345 42.09487724 62.26111031 C42.09673108 63.73118983 42.10035091 65.20126818 42.10573006 66.67133904 C42.11294355 68.72354467 42.11399081 70.77566467 42.11352539 72.82788086 C42.115746 73.99814316 42.11796661 75.16840546 42.12025452 76.37413025 C42 79 42 79 41 80 C38.83519203 80.0989294 36.66706215 80.129711 34.5 80.125 C33.3140625 80.12757812 32.128125 80.13015625 30.90625 80.1328125 C28 80 28 80 27 79 C26.90586313 76.94443339 26.88257002 74.88559819 26.88647461 72.82788086 C26.88632858 72.18399918 26.88618256 71.54011749 26.8860321 70.87672424 C26.88673115 68.73939697 26.89452309 66.60215587 26.90234375 64.46484375 C26.90420796 62.98653715 26.90563185 61.50822993 26.90663147 60.02992249 C26.91045641 56.13201198 26.92028648 52.23413851 26.93133545 48.33624268 C26.94155008 44.36153667 26.9461292 40.38682471 26.95117188 36.41210938 C26.96190878 28.60805404 26.97950538 20.80403692 27 13 C18.09 13 9.18 13 0 13 C0 8.71 0 4.42 0 0 Z " fill="#FFFFFF" transform="translate(262,0)"/>
<path d="M0 0 C2.9008605 0.35298081 3.89516676 0.88728296 5.921875 3.06640625 C6.82679688 4.30197266 6.82679688 4.30197266 7.75 5.5625 C8.36359375 6.38878906 8.9771875 7.21507812 9.609375 8.06640625 C10.29773438 9.02353516 10.29773438 9.02353516 11 10 C8.35732275 14.83070036 4.9335536 18.90204416 1.4375 23.125 C0.26835746 24.54330406 -0.89965771 25.96253839 -2.06640625 27.3828125 C-2.58146729 28.00559082 -3.09652832 28.62836914 -3.62719727 29.27001953 C-4.8308997 30.78690294 -5.92585134 32.38877702 -7 34 C-8.87939453 34.34057617 -8.87939453 34.34057617 -11.1328125 34.29296875 C-11.93847656 34.28330078 -12.74414062 34.27363281 -13.57421875 34.26367188 C-14.41597656 34.23853516 -15.25773438 34.21339844 -16.125 34.1875 C-17.39923828 34.16719727 -17.39923828 34.16719727 -18.69921875 34.14648438 C-20.79974837 34.11108219 -22.89995293 34.05727401 -25 34 C-23.432494 28.69539361 -19.95459071 25.06135106 -16.4375 20.9375 C-10.71408289 14.11909778 -5.24093932 7.19589288 0 0 Z " fill="#FFFFFF" transform="translate(191,46)"/>
<path d="M0 0 C2.86824854 1.3344554 3.88584357 2.4963937 6 5 C6.875 7.8125 6.875 7.8125 7 10 C3.625 10.1875 3.625 10.1875 0 10 C-0.66 9.01 -1.32 8.02 -2 7 C-4.9812093 5.80751628 -6.97786398 6.02859914 -10 7 C-9.67 8.65 -9.34 10.3 -9 12 C-7.77023437 12.34611328 -7.77023437 12.34611328 -6.515625 12.69921875 C2.21777778 15.34222222 2.21777778 15.34222222 5.75 18.3125 C7.41401982 21.89014262 7.62712815 24.09786928 7 28 C4.11720647 31.48969743 1.958665 33.79475067 -2.609375 34.2734375 C-12.13939583 34.58162225 -12.13939583 34.58162225 -15.6875 31.875 C-18.19246223 28.76072264 -18.81625695 26.95047551 -19 23 C-16.1875 22.75 -16.1875 22.75 -13 23 C-12.54625 23.66 -12.0925 24.32 -11.625 25 C-10.1603545 27.25799582 -10.1603545 27.25799582 -7.51953125 27.390625 C-6.62621094 27.34421875 -5.73289062 27.2978125 -4.8125 27.25 C-3.46091797 27.19585937 -3.46091797 27.19585937 -2.08203125 27.140625 C-1.39496094 27.09421875 -0.70789063 27.0478125 0 27 C0.04429825 24.55901786 0.04429825 24.55901786 -1 22 C-4.11463147 20.43393603 -4.11463147 20.43393603 -7.875 19.4375 C-14.54801548 17.45751902 -14.54801548 17.45751902 -16.9140625 15.0625 C-18.60800221 11.84523322 -18.50085861 9.5686176 -18 6 C-12.731461 -0.37770511 -7.98720074 -1.00121249 0 0 Z " fill="#FFFFFF" transform="translate(387,45)"/>
<path d="M0 0 C2.31 0 4.62 0 7 0 C7.11625936 4.56228541 7.18727408 9.12418928 7.25 13.6875 C7.30027344 15.62786133 7.30027344 15.62786133 7.3515625 17.60742188 C7.36445313 18.85458984 7.37734375 20.10175781 7.390625 21.38671875 C7.41157227 22.53358154 7.43251953 23.68044434 7.45410156 24.86206055 C6.90097729 28.68426819 5.71594191 30.30153086 3 33 C-1.06072299 34.35357433 -4.75866962 34.66968374 -9 34 C-11.96266787 31.77799909 -13.53447727 30.19705844 -14.875 26.75 C-14.91625 26.1725 -14.9575 25.595 -15 25 C-14 24 -14 24 -10.9375 23.9375 C-9.4834375 23.9684375 -9.4834375 23.9684375 -8 24 C-7.67 24.99 -7.34 25.98 -7 27 C-5.08333333 27.83333333 -5.08333333 27.83333333 -3 28 C-2.34 27.67 -1.68 27.34 -1 27 C-0.67 18.09 -0.34 9.18 0 0 Z " fill="#FFFFFF" transform="translate(356,45)"/>
<path d="M0 0 C1.32 0.66 2.64 1.32 4 2 C4 3.65 4 5.3 4 7 C-0.75 8.125 -0.75 8.125 -3 7 C-3.1875 4.625 -3.1875 4.625 -3 2 C-2.01 1.34 -1.02 0.68 0 0 Z " fill="#FFFFFF" transform="translate(333,71)"/>
</svg>
