<?xml version="1.0" encoding="UTF-8"?>
<svg version="1.1" xmlns="http://www.w3.org/2000/svg" width="1004" height="250">
<path d="M0 0 C331.32 0 662.64 0 1004 0 C1004 82.5 1004 165 1004 250 C672.68 250 341.36 250 0 250 C0 167.5 0 85 0 0 Z " fill="#3178C6" transform="translate(0,0)"/>
<path d="M0 0 C9.01668446 5.44979017 13.76394569 13.36418435 16.76953125 23.27734375 C17.91956819 28.12749953 18.00031344 32.88918658 17.96875 37.85546875 C17.96311035 38.78278809 17.9574707 39.71010742 17.95166016 40.66552734 C17.74260303 52.49898839 14.92813327 61.55027788 8.65625 71.60546875 C8.07875 72.53359375 7.50125 73.46171875 6.90625 74.41796875 C-0.46968213 81.58901387 -10.07794132 85.63900634 -20.28125 86.04296875 C-29.09268905 85.79602396 -36.07323711 82.7230423 -42.34375 76.60546875 C-43.33375 75.28546875 -44.32375 73.96546875 -45.34375 72.60546875 C-45.67375 89.10546875 -46.00375 105.60546875 -46.34375 122.60546875 C-52.61375 122.60546875 -58.88375 122.60546875 -65.34375 122.60546875 C-65.34375 81.68546875 -65.34375 40.76546875 -65.34375 -1.39453125 C-59.07375 -1.39453125 -52.80375 -1.39453125 -46.34375 -1.39453125 C-45.84875 5.53546875 -45.84875 5.53546875 -45.34375 12.60546875 C-44.539375 11.40921875 -43.735 10.21296875 -42.90625 8.98046875 C-32.71138585 -4.61268345 -14.97949276 -7.18774048 0 0 Z " fill="#FDFDFE" transform="translate(498.34375,109.39453125)"/>
<path d="M0 0 C9.59964167 -0.45581032 18.93559812 1.5591603 26.52734375 7.68359375 C33.44647192 14.51368902 37.35097089 23.64427273 38.58984375 33.18359375 C38.58984375 38.79359375 38.58984375 44.40359375 38.58984375 50.18359375 C19.44984375 50.18359375 0.30984375 50.18359375 -19.41015625 50.18359375 C-16.10152945 62.30150449 -16.10152945 62.30150449 -7.91015625 70.49609375 C0.37729981 74.49183149 10.62544535 74.58393831 19.42578125 72.1015625 C22.53462638 70.88946221 25.5625385 69.58469861 28.58984375 68.18359375 C29.57984375 67.85359375 30.56984375 67.52359375 31.58984375 67.18359375 C31.58984375 72.13359375 31.58984375 77.08359375 31.58984375 82.18359375 C18.59199937 89.43239158 2.5117194 91.92464813 -12.03515625 87.99609375 C-21.54562309 84.48880324 -29.364372 78.39727024 -34.22265625 69.43359375 C-40.19973266 56.31941624 -40.47309816 39.5615917 -35.671875 26.05078125 C-33.73825304 21.6567301 -31.43180187 17.90760736 -28.41015625 14.18359375 C-27.90871094 13.55839844 -27.40726563 12.93320313 -26.890625 12.2890625 C-21.36180758 6.11454378 -13.84427151 2.27267469 -5.84765625 0.30859375 C-3.89701445 0.23766132 -1.94629241 0.1482589 0 0 Z " fill="#FBFCFE" transform="translate(564.41015625,105.81640625)"/>
<path d="M0 0 C7.26 0 14.52 0 22 0 C24.18854499 6.54248937 26.3760986 13.08529459 28.5612793 19.62890625 C29.30258515 21.84784212 30.04443272 24.06659709 30.78686523 26.28515625 C34.98119137 38.82005406 39.13452612 51.35920574 43 64 C45.45914402 59.27960517 47.14290144 54.31459114 48.9375 49.3125 C49.32357422 48.23991943 49.70964844 47.16733887 50.10742188 46.06225586 C54.06282306 34.98039395 57.77470713 23.8189061 61.45678711 12.64379883 C61.68563095 11.95054504 61.91447479 11.25729126 62.1502533 10.54302979 C62.7749252 8.64907972 63.39730186 6.75437307 64.01953125 4.85961914 C65 2 65 2 66 0 C72.6 0 79.2 0 86 0 C81.96811014 11.61772518 77.68441216 23.08094255 73.125 34.5 C71.80422631 37.81961322 70.48577788 41.14014643 69.16796875 44.4609375 C68.66067986 45.73830276 68.66067986 45.73830276 68.1431427 47.04147339 C65.62115181 53.40310434 63.14071709 59.78013299 60.67578125 66.1640625 C59.96015089 68.0136824 59.24449358 69.86329186 58.52880859 71.71289062 C57.49398008 74.38797706 56.46100004 77.06369256 55.43438721 79.74194336 C41.80505624 115.29021647 41.80505624 115.29021647 26 123 C24.90171875 123.55107422 24.90171875 123.55107422 23.78125 124.11328125 C20.09392871 125.28887385 16.57566844 125.25286664 12.75 125.1875 C12.0178125 125.18685547 11.285625 125.18621094 10.53125 125.18554688 C5.140625 125.140625 5.140625 125.140625 4 124 C3.92680379 121.30345146 3.90757463 118.63308542 3.9375 115.9375 C3.94201172 115.17888672 3.94652344 114.42027344 3.95117188 113.63867188 C3.9629932 111.75908129 3.98092922 109.87953101 4 108 C4.86882812 108.03480469 5.73765625 108.06960937 6.6328125 108.10546875 C15.31060109 108.51304841 15.31060109 108.51304841 23 105 C26.31328414 101.29417818 28.33667542 97.5497896 30.3125 93 C30.84488281 91.80375 31.37726563 90.6075 31.92578125 89.375 C33.81845854 83.42855207 31.20955491 78.67519968 28.94897461 73.10449219 C28.63671432 72.3250827 28.32445404 71.54567322 28.00273132 70.74264526 C26.97325238 68.17576856 25.93776646 65.61135918 24.90234375 63.046875 C24.18589924 61.262968 23.46988652 59.47888753 22.75428772 57.69464111 C20.87232939 53.0049404 18.98550187 48.3172153 17.09735107 43.63000488 C14.07028708 36.11355792 11.04996248 28.59440312 8.0308857 21.07474518 C6.97342391 18.44322693 5.91349392 15.81271287 4.85325623 13.18231201 C4.20931445 11.58087804 3.56543582 9.97941867 2.92163086 8.37792969 C2.62397827 7.64132111 2.32632568 6.90471252 2.01965332 6.14578247 C0 1.11352866 0 1.11352866 0 0 Z " fill="#FCFDFE" transform="translate(335,108)"/>
<path d="M0 0 C6.38319271 4.72467757 10.78168102 13.00770239 11.9765625 20.82421875 C12.05249246 22.17689688 12.08944485 23.5319654 12.1015625 24.88671875 C12.15763672 26.38525391 12.15763672 26.38525391 12.21484375 27.9140625 C12.51946552 41.65410742 9.89761824 54.64437346 0.1015625 64.88671875 C-7.62214376 70.79308236 -14.30087842 71.4801469 -23.8984375 70.88671875 C-30.95743404 69.69633147 -36.26424514 65.14763046 -40.8984375 59.88671875 C-45.84445655 51.94489244 -47.07991208 45.45651613 -47.0859375 36.26171875 C-47.10430664 34.82119141 -47.10430664 34.82119141 -47.12304688 33.3515625 C-47.14621893 21.96635769 -45.13007799 12.20615928 -37.2734375 3.63671875 C-27.00355896 -5.98892387 -12.07657786 -7.08194381 0 0 Z " fill="#3278C6" transform="translate(890.8984375,117.11328125)"/>
<path d="M0 0 C29.04 0 58.08 0 88 0 C88 5.61 88 11.22 88 17 C76.78 17 65.56 17 54 17 C54 50.66 54 84.32 54 119 C47.4 119 40.8 119 34 119 C34 85.34 34 51.68 34 17 C22.78 17 11.56 17 0 17 C0 11.39 0 5.78 0 0 Z " fill="#FCFDFE" transform="translate(263,74)"/>
<path d="M0 0 C7.71990896 6.32907516 12.52850363 15.68326413 13.8125 25.5 C14.44430762 35.0781176 14.76767067 45.27675679 11.8125 54.5 C11.35230469 55.94052734 11.35230469 55.94052734 10.8828125 57.41015625 C6.66594874 68.91201567 -0.79085284 76.80167642 -11.6875 82.25 C-19.58843061 85.01001798 -29.40249723 84.62002903 -37.16015625 81.54296875 C-43.71281299 78.17194881 -47.04017623 74.72098566 -51.1875 68.5 C-51.5175 85.66 -51.8475 102.82 -52.1875 120.5 C-54.8275 120.5 -57.4675 120.5 -60.1875 120.5 C-60.1875 79.58 -60.1875 38.66 -60.1875 -3.5 C-57.5475 -3.5 -54.9075 -3.5 -52.1875 -3.5 C-51.8575 1.45 -51.5275 6.4 -51.1875 11.5 C-50.383125 10.30375 -49.57875 9.1075 -48.75 7.875 C-45.23333122 3.19989915 -41.27740953 0.31215312 -36.1875 -2.5 C-35.57261719 -2.84160156 -34.95773437 -3.18320313 -34.32421875 -3.53515625 C-23.7107088 -8.42146169 -9.55502882 -6.32130014 0 0 Z M-44.4296875 11.22265625 C-51.62017575 20.53833325 -52.38336189 29.90529253 -52.5 41.3125 C-52.52900391 42.24642578 -52.55800781 43.18035156 -52.58789062 44.14257812 C-52.68158862 54.52864082 -49.39261075 62.08641958 -42.27734375 69.5859375 C-35.36167865 75.91991114 -28.56368235 76.85665166 -19.453125 76.78515625 C-14.94266716 76.39130048 -11.87946104 75.03491105 -8.1875 72.5 C-7.32125 71.943125 -6.455 71.38625 -5.5625 70.8125 C3.94904669 61.55125717 6.75629948 50.16612743 7 37.25 C6.85704933 25.90491514 5.33452384 15.88973127 -3.11328125 7.61328125 C-15.85824257 -2.6074353 -33.57678588 -0.57493114 -44.4296875 11.22265625 Z " fill="#F7FAFD" transform="translate(896.1875,111.5)"/>
<path d="M0 0 C5.4688552 4.16023627 8.23946944 8.79355071 10.0625 15.375 C10.27534674 18.17241424 10.39622194 20.83213032 10.375 23.625 C10.36871582 24.74998901 10.36871582 24.74998901 10.36230469 25.89770508 C10.17930095 34.91842631 8.33940239 43.26877909 1.61328125 49.77734375 C-4.19406333 54.82402858 -8.293079 55.89278784 -15.89453125 55.75390625 C-21.87694471 55.00898442 -25.84453135 51.79651484 -29.8125 47.4375 C-34.20510681 41.10697842 -34.30241822 35.08551504 -34.3125 27.625 C-34.33699219 26.6865625 -34.36148437 25.748125 -34.38671875 24.78125 C-34.41899822 16.99113767 -32.9235829 10.14689419 -28.0078125 3.9375 C-19.77195783 -2.67764431 -9.65697952 -6.08740293 0 0 Z " fill="#3379C6" transform="translate(485.9375,124.625)"/>
<path d="M0 0 C0.7314624 0.00128906 1.4629248 0.00257812 2.21655273 0.00390625 C8.66726092 0.11676719 14.60761196 1.32421254 20.75 3.3125 C20.75 6.2825 20.75 9.2525 20.75 12.3125 C19.368125 11.8175 17.98625 11.3225 16.5625 10.8125 C10.71553518 9.22133379 5.08431127 8.94235925 -0.9375 8.875 C-1.82783936 8.85308594 -2.71817871 8.83117187 -3.63549805 8.80859375 C-10.66584571 8.82950768 -15.94512541 10.40318955 -21.2734375 15.09375 C-21.71945312 15.6609375 -22.16546875 16.228125 -22.625 16.8125 C-23.08648438 17.3796875 -23.54796875 17.946875 -24.0234375 18.53125 C-27.78393803 23.99235905 -27.96450533 28.79150828 -27.25 35.3125 C-24.49104707 44.97709558 -15.79696927 49.82944153 -7.625 54.625 C22.04385297 72.47252685 22.04385297 72.47252685 25.34765625 84.8671875 C26.78643074 93.61158389 26.34970948 101.58550928 21.75 109.3125 C16.17740656 116.77321921 7.94147916 121.64737696 -1.25 123.3125 C-13.01131364 124.1026323 -27.09246484 124.08419011 -37.25 117.3125 C-37.54296875 115.1484375 -37.54296875 115.1484375 -37.4375 112.6875 C-37.41042969 111.87023437 -37.38335938 111.05296875 -37.35546875 110.2109375 C-37.32066406 109.58445312 -37.28585937 108.95796875 -37.25 108.3125 C-31.71442308 110.06057692 -31.71442308 110.06057692 -29.36328125 111.3359375 C-19.92867625 116.11252387 -6.94749614 116.11744449 3.15625 113.39453125 C8.23680625 111.03023625 11.63385667 107.93645462 14.75 103.3125 C15.89330513 99.88258462 15.95381651 97.1138584 16 93.5 C16.03867187 91.69595703 16.03867187 91.69595703 16.078125 89.85546875 C15.44055779 82.97126095 12.26160559 79.35622852 7.13574219 75.09326172 C2.76502073 71.83087507 -1.91564643 69.1149315 -6.625 66.375 C-31.33074156 51.98504631 -31.33074156 51.98504631 -35.7421875 40.55078125 C-37.7594618 31.65925686 -37.08381583 22.13350539 -32.25 14.3125 C-24.03897569 3.8488938 -13.03681175 -0.09658015 0 0 Z " fill="#F7FAFC" transform="translate(650.25,71.6875)"/>
<path d="M0 0 C0 8.25 0 16.5 0 25 C7.26 25 14.52 25 22 25 C22 27.31 22 29.62 22 32 C14.74 32 7.48 32 0 32 C0.04038134 40.24127419 0.09753429 48.48191545 0.18390274 56.72281837 C0.22334698 60.549767 0.25555011 64.37648659 0.27099609 68.20361328 C0.2861833 71.89974178 0.32066404 75.59524051 0.36830902 79.2910881 C0.38310181 80.69836313 0.39103981 82.10572808 0.39188385 83.5130806 C0.39426121 85.4901103 0.42366946 87.46705075 0.45410156 89.44384766 C0.46298401 90.56747711 0.47186646 91.69110657 0.48101807 92.8487854 C1.11964106 96.72645044 2.5847565 98.93573517 5 102 C9.45083345 104.22541672 15.52251213 103.47279612 20.125 102 C21.053125 101.505 21.053125 101.505 22 101 C22 103.31 22 105.62 22 108 C16.4989702 111.56823555 11.34579282 111.69983408 5 111 C-0.67652425 108.93580936 -3.91817146 106.18452198 -6.5949707 100.77929688 C-8.86917673 94.46850625 -8.36990242 87.83450032 -8.29296875 81.21875 C-8.28736409 79.79529266 -8.28309811 78.37182948 -8.28010559 76.94836426 C-8.2687251 73.22631473 -8.23931791 69.50462395 -8.20599365 65.78271484 C-8.17514493 61.97498424 -8.16156883 58.16719491 -8.14648438 54.359375 C-8.11444037 46.90606856 -8.06172955 39.45313053 -8 32 C-12.95 32 -17.9 32 -23 32 C-23 29.69 -23 27.38 -23 25 C-18.05 25 -13.1 25 -8 25 C-8 17.41 -8 9.82 -8 2 C-2 0 -2 0 0 0 Z " fill="#F4F8FC" transform="translate(936,84)"/>
<path d="M0 0 C1 1 1 1 1.09765625 2.84765625 C1.06510417 4.8984375 1.03255208 6.94921875 1 9 C0.11248047 8.69255859 0.11248047 8.69255859 -0.79296875 8.37890625 C-1.58316406 8.10949219 -2.37335937 7.84007813 -3.1875 7.5625 C-3.96480469 7.29566406 -4.74210938 7.02882813 -5.54296875 6.75390625 C-14.60916047 3.97207 -25.39903278 3.13192257 -33.9765625 7.67578125 C-40.57997358 11.99731861 -45.46453143 16.91567093 -49 24 C-49.3196875 24.63035156 -49.639375 25.26070312 -49.96875 25.91015625 C-54.32658649 36.38106894 -52.97275226 49.76144891 -49.26171875 60.19140625 C-45.71591867 68.08437919 -40.32721925 73.85241731 -32.2578125 77.10546875 C-22.15665812 79.87904711 -12.53372974 78.64324619 -3.2578125 74.09375 C-1 73 -1 73 1 73 C1 75.31 1 77.62 1 80 C-0.20556604 80.63032133 -1.41463189 81.2539497 -2.625 81.875 C-3.29789063 82.22304687 -3.97078125 82.57109375 -4.6640625 82.9296875 C-14.70849467 87.53198585 -27.0370261 87.48412952 -37.54296875 84.09765625 C-47.13276683 79.81350162 -54.28982885 71.48420822 -58.375 61.9375 C-59.91075914 57.63868701 -60.81783532 53.56140367 -61 49 C-61.06316406 47.80117187 -61.12632812 46.60234375 -61.19140625 45.3671875 C-61.74547169 30.36577516 -57.54745126 18.97687078 -47.375 7.8125 C-35.20275582 -3.93677044 -15.42718589 -6.89223814 0 0 Z " fill="#F7FAFD" transform="translate(747,109)"/>
<path d="M0 0 C0 2.64 0 5.28 0 8 C-0.639375 7.835 -1.27875 7.67 -1.9375 7.5 C-9.00144425 6.34670298 -14.21006378 6.16881553 -20.21875 10.47265625 C-27.46990146 16.69020059 -30.27581351 25.94118212 -31.38757324 35.24258423 C-31.55059103 38.52741783 -31.60574804 41.79322348 -31.609375 45.08203125 C-31.62591125 46.26222336 -31.64244751 47.44241547 -31.65948486 48.65837097 C-31.70752976 52.3764692 -31.72923929 56.09415981 -31.75 59.8125 C-31.77819598 62.35483774 -31.8081284 64.89715685 -31.83984375 67.43945312 C-31.91327668 73.62622911 -31.9651726 79.81289252 -32 86 C-34.64 86 -37.28 86 -40 86 C-40 57.95 -40 29.9 -40 1 C-37.36 1 -34.72 1 -32 1 C-31.67 5.62 -31.34 10.24 -31 15 C-30.319375 13.80375 -29.63875 12.6075 -28.9375 11.375 C-25.62869873 6.10335051 -21.79510474 2.36649565 -16.1875 -0.375 C-10.78262579 -1.43477926 -5.26060436 -1.75353479 0 0 Z " fill="#F5F8FC" transform="translate(798,107)"/>
<path d="M0 0 C4.98588671 2.67640672 7.94882185 6.025259 10.1796875 11.15625 C10.9296875 14.28125 10.9296875 14.28125 10.9296875 21.28125 C-1.9403125 21.28125 -14.8103125 21.28125 -28.0703125 21.28125 C-26.75573451 12.0792041 -23.78730697 7.27929744 -16.71875 1.41015625 C-12.08063474 -1.76618335 -5.20198103 -1.80597077 0 0 Z " fill="#347AC6" transform="translate(574.0703125,120.71875)"/>
<path d="M0 0 C2.64 0 5.28 0 8 0 C8 28.05 8 56.1 8 85 C5.36 85 2.72 85 0 85 C0 56.95 0 28.9 0 0 Z " fill="#FEFEFF" transform="translate(810,108)"/>
<path d="M0 0 C3.4375 0.8125 3.4375 0.8125 5.4375 3.8125 C5.25 7.375 5.25 7.375 4.4375 10.8125 C1.4375 12.8125 1.4375 12.8125 -2.125 12.625 C-5.5625 11.8125 -5.5625 11.8125 -7.5625 8.8125 C-7.375 5.25 -7.375 5.25 -6.5625 1.8125 C-3.5625 -0.1875 -3.5625 -0.1875 0 0 Z " fill="#F5F9FC" transform="translate(815.5625,74.1875)"/>
<path d="M0 0 C0.33 0 0.66 0 1 0 C1 2.97 1 5.94 1 9 C-1.97 9 -4.94 9 -8 9 C-6.8553125 8.1646875 -6.8553125 8.1646875 -5.6875 7.3125 C-3.03568819 5.03070844 -1.68044905 3.02480829 0 0 Z " fill="#000000" transform="translate(1003,241)"/>
<path d="M0 0 C0.556875 0.7425 1.11375 1.485 1.6875 2.25 C3.93027178 4.91707995 6.22074975 6.91556232 9 9 C6.03 9 3.06 9 0 9 C0 6.03 0 3.06 0 0 Z " fill="#000000" transform="translate(0,241)"/>
<path d="M0 0 C2.97 0 5.94 0 9 0 C9 2.97 9 5.94 9 9 C8.443125 8.2575 7.88625 7.515 7.3125 6.75 C5.06972822 4.08292005 2.77925025 2.08443768 0 0 Z " fill="#000000" transform="translate(995,0)"/>
<path d="M0 0 C2.97 0 5.94 0 9 0 C8.2575 0.556875 7.515 1.11375 6.75 1.6875 C4.08292005 3.93027178 2.08443768 6.22074975 0 9 C0 6.03 0 3.06 0 0 Z " fill="#000000" transform="translate(0,0)"/>
</svg>
