<svg width="60" height="60" viewBox="0 0 60 60" fill="none" xmlns="http://www.w3.org/2000/svg">
<rect width="60" height="60" fill="white"/>
<path d="M29.9497 34.9804C32.7222 34.9804 34.9697 32.7329 34.9697 29.9604C34.9697 27.188 32.7222 24.9404 29.9497 24.9404C27.1772 24.9404 24.9297 27.188 24.9297 29.9604C24.9297 32.7329 27.1772 34.9804 29.9497 34.9804Z" fill="#00D8FF"/>
<path d="M29.9496 41.4596C22.8996 41.4596 16.7396 40.6296 12.1296 39.0496C9.13961 38.0296 6.59961 36.6696 4.78961 35.1196C2.86961 33.4796 1.84961 31.6896 1.84961 29.9596C1.84961 26.6396 5.48961 23.3896 11.5996 21.2696C16.5996 19.5296 23.1196 18.5596 29.9396 18.5596C36.6396 18.5596 43.0696 19.4996 48.0396 21.2196C50.9496 22.2196 53.3996 23.5196 55.1396 24.9596C57.0296 26.5396 58.0296 28.2696 58.0296 29.9596C58.0296 33.4096 53.9596 36.8996 47.3996 39.0696C42.7596 40.6096 36.5596 41.4596 29.9496 41.4596ZM29.9496 20.9596C23.4796 20.9596 17.0796 21.8996 12.3996 23.5296C6.77961 25.4896 4.25961 28.1696 4.25961 29.9596C4.25961 31.8196 6.96961 34.7496 12.9096 36.7796C17.2696 38.2696 23.1696 39.0596 29.9496 39.0596C36.3096 39.0596 42.2396 38.2596 46.6496 36.7896C52.8196 34.7396 55.6396 31.8096 55.6396 29.9596C55.6396 29.0096 54.9196 27.8896 53.6096 26.7996C52.0996 25.5396 49.8996 24.3896 47.2696 23.4796C42.5396 21.8596 36.3896 20.9596 29.9496 20.9596Z" fill="#00D8FF"/>
<path d="M18.5609 54.9802C17.5409 54.9802 16.6409 54.7602 15.8809 54.3202C13.0109 52.6602 12.0109 47.8802 13.2209 41.5302C14.2109 36.3202 16.6309 30.2002 20.0409 24.2902C23.3909 18.4902 27.4109 13.3902 31.3809 9.94024C33.7009 7.92024 36.0509 6.44024 38.1709 5.66024C40.4809 4.81024 42.4809 4.81024 43.9409 5.65024C46.9309 7.37024 47.9209 12.6502 46.5209 19.4102C45.5309 24.2102 43.1709 30.0002 39.8709 35.7302C36.3509 41.8302 32.5509 46.7502 28.8809 49.9602C26.5009 52.0402 24.0509 53.5602 21.8109 54.3502C20.6409 54.7702 19.5409 54.9802 18.5609 54.9802ZM21.0709 24.8902L22.1109 25.4902C18.8809 31.0902 16.4909 37.1002 15.5709 41.9802C14.4609 47.8302 15.5309 51.3502 17.0709 52.2402C17.4509 52.4602 17.9509 52.5802 18.5609 52.5802C20.5509 52.5802 23.6809 51.3202 27.3009 48.1602C30.7709 45.1302 34.4009 40.4102 37.7909 34.5402C40.9709 29.0302 43.2309 23.4902 44.1709 18.9402C45.4809 12.5702 44.3509 8.67024 42.7409 7.74024C41.9209 7.27024 40.5909 7.33024 38.9909 7.92024C37.1409 8.60024 35.0509 9.93024 32.9509 11.7602C29.1809 15.0402 25.3309 19.9202 22.1109 25.5002L21.0709 24.8902Z" fill="#00D8FF"/>
<path d="M41.3401 55.0097C38.6201 55.0097 35.1701 53.3697 31.5701 50.2697C27.5501 46.8097 23.4601 41.6597 20.0401 35.7497C16.6801 29.9497 14.2801 23.9197 13.2701 18.7497C12.6801 15.7297 12.5701 12.9597 12.9501 10.7297C13.3701 8.29973 14.3601 6.56973 15.8301 5.71973C18.8101 3.98973 23.8801 5.76973 29.0401 10.3597C32.7001 13.6097 36.5401 18.5497 39.8501 24.2697C43.3801 30.3697 45.7501 36.1197 46.6901 40.8997C47.3001 43.9997 47.4001 46.8797 46.9701 49.2197C46.5101 51.7097 45.4701 53.4797 43.9701 54.3497C43.2201 54.7897 42.3301 55.0097 41.3401 55.0097ZM22.1201 34.5497C25.3601 40.1497 29.3801 45.2197 33.1401 48.4497C37.6501 52.3297 41.2301 53.1697 42.7801 52.2697C44.3901 51.3397 45.5701 47.5297 44.3501 41.3697C43.4501 36.8497 41.1801 31.3497 37.7801 25.4797C34.5901 19.9697 30.9201 15.2397 27.4501 12.1597C22.5901 7.83973 18.6501 6.86973 17.0401 7.79973C16.2201 8.26973 15.6101 9.45973 15.3201 11.1397C14.9901 13.0797 15.0901 15.5597 15.6301 18.2897C16.5901 23.1997 18.8901 28.9697 22.1201 34.5497Z" fill="#00D8FF"/>
</svg>
