<svg width="60" height="60" viewBox="0 0 60 60" fill="none" xmlns="http://www.w3.org/2000/svg">
<g clip-path="url(#clip0_157_105)">
<rect width="60" height="60" fill="white"/>
<g clip-path="url(#clip1_157_105)">
<mask id="mask0_157_105" style="mask-type:alpha" maskUnits="userSpaceOnUse" x="0" y="0" width="60" height="60">
<path d="M30 60C46.5685 60 60 46.5685 60 30C60 13.4315 46.5685 0 30 0C13.4315 0 0 13.4315 0 30C0 46.5685 13.4315 60 30 60Z" fill="black"/>
</mask>
<g mask="url(#mask0_157_105)">
<path d="M30 59C46.0163 59 59 46.0163 59 30C59 13.9837 46.0163 1 30 1C13.9837 1 1 13.9837 1 30C1 46.0163 13.9837 59 30 59Z" fill="black" stroke="white" stroke-width="6"/>
<path d="M49.836 52.5067L23.0473 18H18V41.99H22.0379V23.1279L46.6663 54.9483C47.7777 54.2047 48.8363 53.3883 49.836 52.5067Z" fill="url(#paint0_linear_157_105)"/>
<path d="M42.334 18H38.334V42H42.334V18Z" fill="url(#paint1_linear_157_105)"/>
</g>
</g>
</g>
<defs>
<linearGradient id="paint0_linear_157_105" x1="36.3333" y1="38.8333" x2="48.1667" y2="53.5" gradientUnits="userSpaceOnUse">
<stop stop-color="white"/>
<stop offset="1" stop-color="white" stop-opacity="0"/>
</linearGradient>
<linearGradient id="paint1_linear_157_105" x1="40.334" y1="18" x2="40.267" y2="35.625" gradientUnits="userSpaceOnUse">
<stop stop-color="white"/>
<stop offset="1" stop-color="white" stop-opacity="0"/>
</linearGradient>
<clipPath id="clip0_157_105">
<rect width="60" height="60" fill="white"/>
</clipPath>
<clipPath id="clip1_157_105">
<rect width="60" height="60" fill="white"/>
</clipPath>
</defs>
</svg>
