<svg width="60" height="60" viewBox="0 0 60 60" fill="none" xmlns="http://www.w3.org/2000/svg">
<g clip-path="url(#clip0_157_84)">
<path d="M0 0H60V60H0V0Z" fill="#F0DB4F"/>
<path d="M55.0889 45.69C54.6498 42.9524 52.8646 40.6539 47.5775 38.5094C45.741 37.6653 43.6935 37.0608 43.0832 35.6691C42.8665 34.8592 42.838 34.403 42.9749 33.9125C43.3684 32.3212 45.2676 31.825 46.7733 32.2813C47.7429 32.6064 48.6612 33.3536 49.2144 34.5455C51.8038 32.8688 51.798 32.8801 53.606 31.7281C52.9444 30.7015 52.5908 30.228 52.1574 29.7889C50.6003 28.0494 48.4787 27.154 45.0851 27.2224C44.4977 27.2965 43.9046 27.3763 43.3171 27.4505C41.6232 27.8783 40.0091 28.768 39.0623 29.96C36.222 33.1825 37.0319 38.8231 40.4882 41.1445C43.8931 43.6996 48.895 44.2813 49.5338 46.6711C50.1555 49.5969 47.3837 50.5436 44.6288 50.2072C42.5984 49.7851 41.4692 48.7528 40.2486 46.8764C38.0015 48.1768 38.0015 48.1768 35.6916 49.5057C36.2392 50.7034 36.8152 51.2452 37.7335 52.2832C42.0795 56.692 52.9558 56.4753 54.9065 49.8022C54.9863 49.5741 55.511 48.0455 55.0889 45.69ZM32.6174 27.576H27.0053C27.0053 32.4239 26.9825 37.2376 26.9825 42.0855C26.9825 45.171 27.1422 47.9999 26.6403 48.8668C25.819 50.5721 23.6916 50.3611 22.7221 50.0303C21.7354 49.5455 21.2335 48.8554 20.6517 47.8801C20.492 47.6007 20.3722 47.3839 20.3323 47.3668C18.8095 48.2965 17.2923 49.2318 15.7695 50.1615C16.5281 51.7185 17.646 53.0703 19.0775 53.9485C21.2163 55.2318 24.0908 55.6253 27.0966 54.9352C29.0529 54.3649 30.741 53.1843 31.625 51.3877C32.9026 49.0322 32.6288 46.1805 32.6174 43.0265C32.646 37.882 32.6174 32.7376 32.6174 27.576Z" fill="#323330"/>
</g>
<defs>
<clipPath id="clip0_157_84">
<rect width="60" height="60" fill="white"/>
</clipPath>
</defs>
</svg>
